<?xml version="1.0" encoding="UTF-8" standalone="no"?>
<!DOCTYPE svg PUBLIC "-//W3C//DTD SVG 1.1//EN"
 "http://www.w3.org/Graphics/SVG/1.1/DTD/svg11.dtd">
<!-- Generated by graphviz version 9.0.0 (20230911.1827)
 -->
<!-- Title: G Pages: 1 -->
<svg width="1304pt" height="141pt"
 viewBox="0.00 0.00 1303.55 141.00" xmlns="http://www.w3.org/2000/svg" xmlns:xlink="http://www.w3.org/1999/xlink">
<g id="graph0" class="graph" transform="scale(1 1) rotate(0) translate(4 137)">
<title>G</title>
<polygon fill="white" stroke="none" points="-4,4 -4,-137 1299.55,-137 1299.55,4 -4,4"/>
<g id="clust1" class="cluster">
<title>cluster_internet</title>
<polygon fill="none" stroke="blue" points="8,-8 8,-125 728.11,-125 728.11,-8 8,-8"/>
<text text-anchor="middle" x="368.06" y="-107.7" font-family="Times,serif" font-size="14.00">Internet</text>
</g>
<g id="clust2" class="cluster">
<title>cluster_local</title>
<polygon fill="none" stroke="green" points="967.11,-27 967.11,-104 1287.55,-104 1287.55,-27 967.11,-27"/>
<text text-anchor="middle" x="1127.33" y="-86.7" font-family="Times,serif" font-size="14.00">Local Network</text>
</g>
<!-- User -->
<g id="node1" class="node">
<title>User</title>
<ellipse fill="none" stroke="black" cx="158.31" cy="-54" rx="142.31" ry="30.05"/>
<text text-anchor="middle" x="158.31" y="-57.95" font-family="Times,serif" font-size="14.00">User/Client</text>
<text text-anchor="middle" x="158.31" y="-40.7" font-family="Times,serif" font-size="14.00">Public IP: Dynamic or Any</text>
</g>
<!-- VPS -->
<g id="node2" class="node">
<title>VPS</title>
<polygon fill="none" stroke="black" points="720.11,-74.25 546.61,-74.25 546.61,-31.75 720.11,-31.75 720.11,-74.25"/>
<text text-anchor="middle" x="633.36" y="-56.95" font-family="Times,serif" font-size="14.00">VPS with WireGuard</text>
<text text-anchor="middle" x="633.36" y="-39.7" font-family="Times,serif" font-size="14.00">Public IP: 203.0.113.1</text>
</g>
<!-- User&#45;&gt;VPS -->
<g id="edge1" class="edge">
<title>User&#45;&gt;VPS</title>
<path fill="none" stroke="black" d="M279.64,-37.9C292.77,-36.61 305.96,-35.51 318.61,-34.75 411.78,-29.14 435.63,-26.63 528.61,-34.75 530.67,-34.93 532.76,-35.13 534.85,-35.35"/>
<polygon fill="black" stroke="black" points="534.34,-38.81 544.67,-36.49 535.15,-31.86 534.34,-38.81"/>
<text text-anchor="middle" x="423.61" y="-37.95" font-family="Times,serif" font-size="14.00">Access Public IP: 203.0.113.1</text>
</g>
<!-- VPS&#45;&gt;User -->
<g id="edge3" class="edge">
<title>VPS&#45;&gt;User</title>
<path fill="none" stroke="black" d="M546.44,-53.18C481.23,-53.32 389.86,-53.51 312.26,-53.68"/>
<polygon fill="black" stroke="black" points="312.42,-50.18 302.43,-53.7 312.44,-57.18 312.42,-50.18"/>
<text text-anchor="middle" x="423.61" y="-56.95" font-family="Times,serif" font-size="14.00">Return Traffic</text>
</g>
<!-- Server -->
<g id="node3" class="node">
<title>Server</title>
<ellipse fill="none" stroke="black" cx="1127.33" cy="-53" rx="152.22" ry="18"/>
<text text-anchor="middle" x="1127.33" y="-48.33" font-family="Times,serif" font-size="14.00">Local Server Behind CGNAT</text>
</g>
<!-- VPS&#45;&gt;Server -->
<g id="edge2" class="edge">
<title>VPS&#45;&gt;Server</title>
<path fill="none" stroke="black" d="M720.34,-53C787.29,-53 882.17,-53 963.38,-53"/>
<polygon fill="black" stroke="black" points="963.23,-56.5 973.23,-53 963.23,-49.5 963.23,-56.5"/>
<text text-anchor="middle" x="847.61" y="-74.2" font-family="Times,serif" font-size="14.00">WireGuard Tunnel</text>
<text text-anchor="middle" x="847.61" y="-56.95" font-family="Times,serif" font-size="14.00">(192.168.4.1 &lt;&#45;&gt; 192.168.4.2)</text>
</g>
</g>
</svg>
