<?xml version="1.0" encoding="UTF-8" standalone="no"?>
<!DOCTYPE svg PUBLIC "-//W3C//DTD SVG 1.1//EN"
 "http://www.w3.org/Graphics/SVG/1.1/DTD/svg11.dtd">
<!-- Generated by graphviz version 9.0.0 (20230911.1827)
 -->
<!-- Title: G Pages: 1 -->
<svg width="965pt" height="141pt"
 viewBox="0.00 0.00 964.83 141.00" xmlns="http://www.w3.org/2000/svg" xmlns:xlink="http://www.w3.org/1999/xlink">
<g id="graph0" class="graph" transform="scale(1 1) rotate(0) translate(4 137)">
<title>G</title>
<polygon fill="white" stroke="none" points="-4,4 -4,-137 960.83,-137 960.83,4 -4,4"/>
<g id="clust1" class="cluster">
<title>cluster_internet</title>
<polygon fill="none" stroke="blue" points="8,-8 8,-125 477.14,-125 477.14,-8 8,-8"/>
<text text-anchor="middle" x="242.57" y="-107.7" font-family="Times,serif" font-size="14.00">Internet</text>
</g>
<g id="clust2" class="cluster">
<title>cluster_local</title>
<polygon fill="none" stroke="green" points="628.39,-8 628.39,-85 948.83,-85 948.83,-8 628.39,-8"/>
<text text-anchor="middle" x="788.61" y="-67.7" font-family="Times,serif" font-size="14.00">Local Network</text>
</g>
<!-- User -->
<g id="node1" class="node">
<title>User</title>
<ellipse fill="none" stroke="black" cx="84.57" cy="-54" rx="68.57" ry="18"/>
<text text-anchor="middle" x="84.57" y="-49.33" font-family="Times,serif" font-size="14.00">User/Client</text>
</g>
<!-- VPS -->
<g id="node2" class="node">
<title>VPS</title>
<polygon fill="none" stroke="black" points="469.14,-52 305.39,-52 305.39,-16 469.14,-16 469.14,-52"/>
<text text-anchor="middle" x="387.26" y="-29.32" font-family="Times,serif" font-size="14.00">VPS with WireGuard</text>
</g>
<!-- User&#45;&gt;VPS -->
<g id="edge1" class="edge">
<title>User&#45;&gt;VPS</title>
<path fill="none" stroke="black" d="M134.13,-41.15C146.14,-38.51 159.03,-36.12 171.14,-34.75 211.25,-30.22 255.84,-29.38 293.97,-29.93"/>
<polygon fill="black" stroke="black" points="293.49,-33.42 303.55,-30.1 293.62,-26.42 293.49,-33.42"/>
<text text-anchor="middle" x="229.26" y="-37.95" font-family="Times,serif" font-size="14.00">Access Public IP</text>
</g>
<!-- VPS&#45;&gt;User -->
<g id="edge3" class="edge">
<title>VPS&#45;&gt;User</title>
<path fill="none" stroke="black" d="M304.94,-49.94C299.02,-50.75 293.12,-51.45 287.39,-52 246.93,-55.86 201.69,-56.63 164.32,-56.32"/>
<polygon fill="black" stroke="black" points="164.55,-52.82 154.51,-56.21 164.47,-59.82 164.55,-52.82"/>
<text text-anchor="middle" x="229.26" y="-59.95" font-family="Times,serif" font-size="14.00">Return Traffic</text>
</g>
<!-- Server -->
<g id="node3" class="node">
<title>Server</title>
<ellipse fill="none" stroke="black" cx="788.61" cy="-34" rx="152.22" ry="18"/>
<text text-anchor="middle" x="788.61" y="-29.32" font-family="Times,serif" font-size="14.00">Local Server Behind CGNAT</text>
</g>
<!-- VPS&#45;&gt;Server -->
<g id="edge2" class="edge">
<title>VPS&#45;&gt;Server</title>
<path fill="none" stroke="black" d="M469.56,-34C514.27,-34 571.37,-34 624.83,-34"/>
<polygon fill="black" stroke="black" points="624.66,-37.5 634.66,-34 624.66,-30.5 624.66,-37.5"/>
<text text-anchor="middle" x="552.76" y="-37.95" font-family="Times,serif" font-size="14.00">WireGuard Tunnel</text>
</g>
</g>
</svg>
