<?xml version="1.0" encoding="UTF-8" standalone="no"?>
<!DOCTYPE svg PUBLIC "-//W3C//DTD SVG 1.1//EN"
 "http://www.w3.org/Graphics/SVG/1.1/DTD/svg11.dtd">
<!-- Generated by graphviz version 9.0.0 (20230911.1827)
 -->
<!-- Title: G Pages: 1 -->
<svg width="1463pt" height="141pt"
 viewBox="0.00 0.00 1463.02 141.00" xmlns="http://www.w3.org/2000/svg" xmlns:xlink="http://www.w3.org/1999/xlink">
<g id="graph0" class="graph" transform="scale(1 1) rotate(0) translate(4 137)">
<title>G</title>
<polygon fill="white" stroke="none" points="-4,4 -4,-137 1459.02,-137 1459.02,4 -4,4"/>
<g id="clust1" class="cluster">
<title>cluster_internet</title>
<polygon fill="none" stroke="blue" points="8,-8 8,-125 841.28,-125 841.28,-8 8,-8"/>
<text text-anchor="middle" x="424.64" y="-107.7" font-family="Times,serif" font-size="14.00">Internet</text>
</g>
<g id="clust2" class="cluster">
<title>cluster_local</title>
<polygon fill="none" stroke="green" points="1080.28,-27 1080.28,-104 1447.02,-104 1447.02,-27 1080.28,-27"/>
<text text-anchor="middle" x="1263.65" y="-86.7" font-family="Times,serif" font-size="14.00">Red Local</text>
</g>
<!-- User -->
<g id="node1" class="node">
<title>User</title>
<ellipse fill="none" stroke="black" cx="199.14" cy="-54" rx="183.14" ry="30.05"/>
<text text-anchor="middle" x="199.14" y="-57.95" font-family="Times,serif" font-size="14.00">Usuario/Cliente</text>
<text text-anchor="middle" x="199.14" y="-40.7" font-family="Times,serif" font-size="14.00">IP Pública: Dinámica o Cualquiera</text>
</g>
<!-- VPS -->
<g id="node2" class="node">
<title>VPS</title>
<polygon fill="none" stroke="black" points="833.28,-74.25 650.78,-74.25 650.78,-31.75 833.28,-31.75 833.28,-74.25"/>
<text text-anchor="middle" x="742.03" y="-56.95" font-family="Times,serif" font-size="14.00">VPS con WireGuard</text>
<text text-anchor="middle" x="742.03" y="-39.7" font-family="Times,serif" font-size="14.00">IP Pública: 203.0.113.1</text>
</g>
<!-- User&#45;&gt;VPS -->
<g id="edge1" class="edge">
<title>User&#45;&gt;VPS</title>
<path fill="none" stroke="black" d="M354,-37.6C436.73,-31.2 540.44,-27.02 632.78,-34.75 634.86,-34.92 636.96,-35.12 639.08,-35.33"/>
<polygon fill="black" stroke="black" points="638.68,-38.8 649,-36.43 639.45,-31.85 638.68,-38.8"/>
<text text-anchor="middle" x="516.53" y="-37.95" font-family="Times,serif" font-size="14.00">Acceso a IP Pública: 203.0.113.1</text>
</g>
<!-- VPS&#45;&gt;User -->
<g id="edge3" class="edge">
<title>VPS&#45;&gt;User</title>
<path fill="none" stroke="black" d="M650.43,-53.17C580.57,-53.3 481.42,-53.48 393.94,-53.64"/>
<polygon fill="black" stroke="black" points="394.01,-50.14 384.02,-53.66 394.03,-57.14 394.01,-50.14"/>
<text text-anchor="middle" x="516.53" y="-56.95" font-family="Times,serif" font-size="14.00">Tráfico de Retorno</text>
</g>
<!-- Server -->
<g id="node3" class="node">
<title>Server</title>
<ellipse fill="none" stroke="black" cx="1263.65" cy="-53" rx="175.37" ry="18"/>
<text text-anchor="middle" x="1263.65" y="-48.33" font-family="Times,serif" font-size="14.00">Servidor Local Detrás de CGNAT</text>
</g>
<!-- VPS&#45;&gt;Server -->
<g id="edge2" class="edge">
<title>VPS&#45;&gt;Server</title>
<path fill="none" stroke="black" d="M833.54,-53C900.47,-53 993.94,-53 1076.57,-53"/>
<polygon fill="black" stroke="black" points="1076.38,-56.5 1086.38,-53 1076.38,-49.5 1076.38,-56.5"/>
<text text-anchor="middle" x="960.78" y="-74.2" font-family="Times,serif" font-size="14.00">Túnel WireGuard</text>
<text text-anchor="middle" x="960.78" y="-56.95" font-family="Times,serif" font-size="14.00">(192.168.4.1 &lt;&#45;&gt; 192.168.4.2)</text>
</g>
</g>
</svg>
