<?xml version="1.0" encoding="UTF-8" standalone="no"?>
<!DOCTYPE svg PUBLIC "-//W3C//DTD SVG 1.1//EN"
 "http://www.w3.org/Graphics/SVG/1.1/DTD/svg11.dtd">
<!-- Generated by graphviz version 9.0.0 (20230911.1827)
 -->
<!-- Title: G Pages: 1 -->
<svg width="1306pt" height="146pt"
 viewBox="0.00 0.00 1305.99 146.00" xmlns="http://www.w3.org/2000/svg" xmlns:xlink="http://www.w3.org/1999/xlink">
<g id="graph0" class="graph" transform="scale(1 1) rotate(0) translate(4 142)">
<title>G</title>
<polygon fill="white" stroke="none" points="-4,4 -4,-142 1301.99,-142 1301.99,4 -4,4"/>
<g id="clust1" class="cluster">
<title>cluster_internet</title>
<polygon fill="none" stroke="blue" points="8,-13 8,-130 728.11,-130 728.11,-13 8,-13"/>
<text text-anchor="middle" x="368.06" y="-112.7" font-family="Times,serif" font-size="14.00">Internet</text>
</g>
<g id="clust2" class="cluster">
<title>cluster_local</title>
<polygon fill="none" stroke="green" points="967.11,-8 967.11,-109 1289.99,-109 1289.99,-8 967.11,-8"/>
<text text-anchor="middle" x="1128.55" y="-91.7" font-family="Times,serif" font-size="14.00">Local Network</text>
</g>
<!-- User -->
<g id="node1" class="node">
<title>User</title>
<ellipse fill="none" stroke="black" cx="158.31" cy="-59" rx="142.31" ry="30.05"/>
<text text-anchor="middle" x="158.31" y="-62.95" font-family="Times,serif" font-size="14.00">User/Client</text>
<text text-anchor="middle" x="158.31" y="-45.7" font-family="Times,serif" font-size="14.00">Public IP: Dynamic or Any</text>
</g>
<!-- VPS -->
<g id="node2" class="node">
<title>VPS</title>
<polygon fill="none" stroke="black" points="720.11,-67.25 546.61,-67.25 546.61,-24.75 720.11,-24.75 720.11,-67.25"/>
<text text-anchor="middle" x="633.36" y="-49.95" font-family="Times,serif" font-size="14.00">VPS with WireGuard</text>
<text text-anchor="middle" x="633.36" y="-32.7" font-family="Times,serif" font-size="14.00">Public IP: 203.0.113.1</text>
</g>
<!-- User&#45;&gt;VPS -->
<g id="edge1" class="edge">
<title>User&#45;&gt;VPS</title>
<path fill="none" stroke="black" d="M279.64,-42.9C292.77,-41.61 305.96,-40.51 318.61,-39.75 411.78,-34.14 435.32,-36.94 528.61,-39.75 530.68,-39.81 532.78,-39.88 534.9,-39.96"/>
<polygon fill="black" stroke="black" points="534.68,-43.45 544.81,-40.36 534.96,-36.46 534.68,-43.45"/>
<text text-anchor="middle" x="423.61" y="-43.95" font-family="Times,serif" font-size="14.00">Access Public IP: 203.0.113.1</text>
</g>
<!-- VPS&#45;&gt;User -->
<g id="edge3" class="edge">
<title>VPS&#45;&gt;User</title>
<path fill="none" stroke="black" d="M546.36,-55.79C540.36,-56.27 534.4,-56.68 528.61,-57 457.5,-60.95 378.58,-61.85 312,-61.6"/>
<polygon fill="black" stroke="black" points="312.11,-58.1 302.09,-61.56 312.07,-65.1 312.11,-58.1"/>
<text text-anchor="middle" x="423.61" y="-64.95" font-family="Times,serif" font-size="14.00">Return Traffic</text>
</g>
<!-- Server -->
<g id="node3" class="node">
<title>Server</title>
<ellipse fill="none" stroke="black" cx="1128.55" cy="-46" rx="153.44" ry="30.05"/>
<text text-anchor="middle" x="1128.55" y="-49.95" font-family="Times,serif" font-size="14.00">Local Server Behind CGNAT</text>
<text text-anchor="middle" x="1128.55" y="-32.7" font-family="Times,serif" font-size="14.00">Private IP: 192.168.4.2</text>
</g>
<!-- VPS&#45;&gt;Server -->
<g id="edge2" class="edge">
<title>VPS&#45;&gt;Server</title>
<path fill="none" stroke="black" d="M720.55,-46C787.53,-46 882.41,-46 963.72,-46"/>
<polygon fill="black" stroke="black" points="963.58,-49.5 973.58,-46 963.58,-42.5 963.58,-49.5"/>
<text text-anchor="middle" x="847.61" y="-67.2" font-family="Times,serif" font-size="14.00">WireGuard Tunnel</text>
<text text-anchor="middle" x="847.61" y="-49.95" font-family="Times,serif" font-size="14.00">(192.168.4.1 &lt;&#45;&gt; 192.168.4.2)</text>
</g>
</g>
</svg>
